#!OML:ASF F:\VICON\USERDATA\INSTALL\rory3\rory3.ASF
:FULLY-SPECIFIED
:DEGREES
183
root 0.835728 25.9541 -15.908 4.06491 -5.75641 1.02561
lowerback 13.5889 2.58292 0.748267
upperback -0.539347 3.62036 0.812893
thorax -8.21603 1.73727 -0.294844
lowerneck -11.038 -3.42812 -10.125
upperneck 14.64 -4.24615 8.33234
head 6.66467 -1.94339 3.97335
rclavicle 2.66371e-014 8.74653e-015
rhumerus -32.5469 -12.0681 -75.3844
rradius 34.3231
rwrist -1.53114
rhand -25.0573 15.6275
rfingers 7.12502
rthumb 1.45621 -14.3472
lclavicle 2.66371e-014 8.74653e-015
lhumerus -36.5538 11.464 74.3833
lradius 59.2352
lwrist 8.83404
lhand -27.9007 15.767
lfingers 7.12502
lthumb -1.29001 45.7428
rfemur -18.2487 -9.1719 19.3793
rtibia 36.1281
rfoot 24.0111 -7.19966
rtoes 16.8254
lfemur -14.7456 4.21742 -17.9909
ltibia 38.5857
lfoot 36.0684 -11.7805
ltoes 5.61317
184
root 0.826304 26.1124 -15.8947 4.22605 -5.60854 0.965137
lowerback 13.5374 2.48081 0.724378
upperback -0.39837 3.48874 0.954201
thorax -8.04586 1.67973 -0.0984293
lowerneck -11.977 -3.60962 -10.6907
upperneck 14.8544 -4.36707 8.67295
head 6.93038 -1.98573 4.16351
rclavicle 2.46493e-014 -2.70347e-014
rhumerus -31.7462 -16.4591 -74.0125
rradius 30.729
rwrist -0.331244
rhand -25.7707 14.7297
rfingers 7.12502
rthumb 0.767187 -15.2487
lclavicle 2.46493e-014 -2.70347e-014
lhumerus -35.9469 13.0887 74.891
lradius 55.7258
lwrist 8.11339
lhand -28.1025 15.6805
lfingers 7.12502
lthumb -1.48487 45.6551
rfemur -18.5828 -9.53477 19.6861
rtibia 35.9105
rfoot 22.7057 -7.81486
rtoes 15.4848
lfemur -15.2411 3.99868 -17.8449
ltibia 38.7081
lfoot 34.1534 -10.9339
ltoes 4.92925
185
root 0.817326 26.2476 -15.8777 4.29592 -5.66986 1.03324
lowerback 13.4103 2.4431 0.521095
upperback -0.163252 3.41289 1.11686
thorax -7.74323 1.65752 0.215095
lowerneck -12.7482 -3.98055 -10.7431
upperneck 14.5052 -4.71277 8.35287
head 6.98411 -2.16209 4.01783
rclavicle -3.07122e-014 -2.06736e-014
rhumerus -31.2147 -21.1413 -72.3915
rradius 27.5346
rwrist 1.73919
rhand -26.5395 13.7641
rfingers 7.12502
rthumb 0.0246711 -16.2157
lclavicle -3.07122e-014 -2.06736e-014
lhumerus -35.2068 14.8619 75.3671
lradius 51.8956
lwrist 6.52795
lhand -27.9757 16.6583
lfingers 7.12502
lthumb -1.36248 46.6337
rfemur -18.8481 -9.5907 19.7968
rtibia 35.595
rfoot 21.5354 -8.75302
rtoes 15.167
lfemur -15.6128 4.03218 -17.8748
ltibia 38.7922
lfoot 31.928 -10.3422
ltoes 3.45279
186
root 0.811635 26.3721 -15.8618 4.44542 -5.56741 0.937171
lowerback 13.1226 2.44313 0.546588
upperback -0.133641 3.42938 1.32663
thorax -7.56106 1.67095 0.432924
lowerneck -13.1597 -3.76503 -11.4162
upperneck 15.0092 -4.32811 8.73285
head 7.20296 -1.97746 4.30163
rclavicle -5.76476e-014 -7.95139e-016
rhumerus -31.7771 -26.2242 -70.1172
rradius 24.8565
rwrist 4.36402
rhand -27.2918 13.3862
rfingers 7.12502
rthumb -0.7019 -16.5924
lclavicle -5.76476e-014 -7.95139e-016
lhumerus -34.8553 16.1819 75.7868
lradius 48.0181
lwrist 4.38185
lhand -27.6728 18.119
lfingers 7.12502
lthumb -1.06991 48.0961
rfemur -19.1232 -9.79821 20.099
rtibia 35.1694
rfoot 20.5503 -9.52694
rtoes 15.0451
lfemur -16.0681 3.95233 -17.7338
ltibia 38.8195
lfoot 29.8187 -10.0098
ltoes 1.13122
187
root 0.808958 26.4832 -15.8492 4.713 -5.31797 0.761461
lowerback 12.4609 2.59005 0.453029
upperback 0.102354 3.62646 1.72926
thorax -6.97059 1.7829 0.907895
lowerneck -13.3891 -4.02285 -11.3721
upperneck 14.7114 -4.53872 8.10791
head 7.15582 -2.12147 4.05505
rclavicle 3.26007e-014 -6.36111e-015
rhumerus -32.683 -31.8925 -66.9686
rradius 22.6579
rwrist 7.34525
rhand -27.5467 13.1572
rfingers 7.12502
rthumb -0.948073 -16.8205
lclavicle 3.26007e-014 -6.36111e-015
lhumerus -33.9421 17.4312 76.6348
lradius 43.9401
lwrist 2.31428
lhand -27.9013 16.9509
lfingers 7.12502
lthumb -1.29058 46.9267
rfemur -19.5081 -10.1992 20.5196
rtibia 34.6892
rfoot 20.1957 -9.68391
rtoes 14.9704
lfemur -16.7004 3.71272 -17.5151
ltibia 38.7966
lfoot 27.8125 -9.70718
ltoes -0.446098
188
root 0.808039 26.578 -15.8351 4.89871 -5.17458 0.659454
lowerback 12.5224 2.60735 0.704357
upperback -0.158594 3.69566 1.75213
thorax -7.27088 1.80672 0.769322
lowerneck -12.7871 -4.12242 -11.3234
upperneck 14.4918 -4.69786 7.8522
head 6.98973 -2.22727 3.94731
rclavicle -3.65764e-014 -1.74931e-014
rhumerus -35.0071 -36.229 -64.008
rradius 21.3425
rwrist 9.30382
rhand -27.979 12.7021
rfingers 7.12502
rthumb -1.36566 -17.2733
lclavicle -3.65764e-014 -1.74931e-014
lhumerus -33.8529 18.4259 76.5398
lradius 39.9057
lwrist 0.593873
lhand -28.028 15.6901
lfingers 7.12502
lthumb -1.413 45.6651
rfemur -19.7685 -10.5115 20.8005
rtibia 34.1578
rfoot 19.9842 -9.67848
rtoes 15.4875
lfemur -17.2969 3.67299 -17.4114
ltibia 38.7661
lfoot 25.9645 -9.32228
ltoes -0.464625
189
root 0.809702 26.6564 -15.8252 4.91061 -4.79348 0.675463
lowerback 12.7699 2.54841 1.01423
upperback -0.204085 3.66648 1.72108
thorax -7.43733 1.77844 0.556106
lowerneck -12.7518 -4.88259 -12.3693
upperneck 14.1594 -5.66209 8.67889
head 7.0316 -2.67658 4.28623
rclavicle 2.60408e-014 1.19271e-014
rhumerus -37.1182 -39.2878 -61.6699
rradius 20.665
rwrist 9.69574
rhand -28.4268 12.5124
rfingers 7.12502
rthumb -1.79807 -17.4598
lclavicle 2.60408e-014 1.19271e-014
lhumerus -33.2666 19.4523 76.6358
lradius 36.0177
lwrist -1.27209
lhand -27.9943 16.5325
lfingers 7.12502
lthumb -1.38038 46.5077
rfemur -19.8127 -10.9298 20.8755
rtibia 33.6028
rfoot 19.358 -9.9841
rtoes 16.3816
lfemur -17.7264 3.45672 -17.4319
ltibia 38.6964
lfoot 24.4296 -8.83338
ltoes 0.307722
